<svg width="24" height="24" viewBox="0 0 24 24" fill="none" xmlns="http://www.w3.org/2000/svg">
<path d="M11.8314 13.8502C7.92498 14.2033 4.94881 17.5042 5.00067 21.4262V21.6251C5.00067 22.3844 5.61626 23 6.37562 23C7.13499 23 7.75058 22.3844 7.75058 21.6251V21.3712C7.70924 18.9631 9.48637 16.9095 11.8754 16.6047C14.3973 16.3546 16.6445 18.1963 16.8946 20.7182C16.9093 20.8673 16.9168 21.017 16.9169 21.1668V21.6251C16.9169 22.3844 17.5325 23 18.2919 23C19.0513 23 19.6669 22.3844 19.6669 21.6251V21.1667C19.6624 17.1122 16.3719 13.829 12.3174 13.8335C12.1553 13.8337 11.9932 13.8392 11.8314 13.8502Z" fill="#2B1B12"/>
<path d="M12.3338 11.9996C15.3713 11.9996 17.8336 9.53727 17.8336 6.49982C17.8336 3.46237 15.3713 1 12.3338 1C9.29638 1 6.834 3.46237 6.834 6.49982C6.83701 9.53603 9.29762 11.9966 12.3338 11.9996ZM12.3338 3.74991C13.8526 3.74991 15.0837 4.9811 15.0837 6.49982C15.0837 8.01855 13.8526 9.24973 12.3338 9.24973C10.8151 9.24973 9.58391 8.01855 9.58391 6.49982C9.58391 4.9811 10.8151 3.74991 12.3338 3.74991Z" fill="#2B1B12"/>
</svg>
